<svg xmlns="http://www.w3.org/2000/svg" width="1200" height="630" viewBox="0 0 1200 630" role="img" aria-labelledby="title desc">
  <title id="title">Advanced Blog Post Cover</title>
  <desc id="desc">Thumbnail image for a blog post template with images and attachments.</desc>
  <defs>
    <linearGradient id="g" x1="0%" y1="0%" x2="100%" y2="100%">
      <stop offset="0%" stop-color="#fff4d6"/>
      <stop offset="100%" stop-color="#d7f0e7"/>
    </linearGradient>
  </defs>
  <rect width="1200" height="630" fill="url(#g)"/>
  <rect x="58" y="58" width="1084" height="514" rx="30" fill="#fffdf8" stroke="#0f172a" stroke-width="4"/>
  <rect x="108" y="116" width="340" height="398" rx="20" fill="#e0f2fe" stroke="#0369a1" stroke-width="3"/>
  <rect x="496" y="116" width="596" height="94" rx="18" fill="#0f172a"/>
  <rect x="496" y="246" width="548" height="24" rx="12" fill="#94a3b8"/>
  <rect x="496" y="290" width="512" height="24" rx="12" fill="#94a3b8"/>
  <rect x="496" y="334" width="448" height="24" rx="12" fill="#94a3b8"/>
  <rect x="496" y="404" width="168" height="82" rx="20" fill="#0f766e"/>
  <rect x="692" y="404" width="168" height="82" rx="20" fill="#1d4ed8"/>
  <rect x="888" y="404" width="168" height="82" rx="20" fill="#b45309"/>
  <text x="496" y="173" font-family="Helvetica, Arial, sans-serif" font-size="40" font-weight="700" fill="#ffffff">Advanced Post Template</text>
  <text x="553" y="455" font-family="Helvetica, Arial, sans-serif" font-size="28" font-weight="700" fill="#ffffff">IMG</text>
  <text x="744" y="455" font-family="Helvetica, Arial, sans-serif" font-size="28" font-weight="700" fill="#ffffff">PDF</text>
  <text x="938" y="455" font-family="Helvetica, Arial, sans-serif" font-size="28" font-weight="700" fill="#ffffff">ZIP</text>
  <path d="M152 414l76-118 72 64 74-102 108 156H152z" fill="#0284c7"/>
  <circle cx="362" cy="202" r="30" fill="#f59e0b"/>
</svg>
